# xmcd
# Track frame offsets:
# 150
# 13782
# 31872
# 53574
# 71447
# 83543
# 106410
# 130843
# 141395
# 157068
#
# Disc length: 2477 seconds
# Revision: 0
# Processed by: cddbd v1.5.2PL0 Copyright (c) Steve Scherf et al.
# Submitted via: VisiTrax 2.10.0.248 - For more info visit www.synapsa.com
#
DISCID=7d09ab0a
DTITLE=Wiggler, Matt - Matt Wigler
DYEAR=2007
DGENRE=Blues
TTITLE0=Track Ten
TTITLE1=Blues Don't Bother Me
TTITLE2=Summertime
TTITLE3=Time To Change
TTITLE4=Tension Boogie
TTITLE5=The Chicken
TTITLE6=Georgia
TTITLE7=Back At The Chicken Shack
TTITLE8=How Long Blues
TTITLE9=Thrash Boogie
EXTD=
EXTT0=
EXTT1=
EXTT2=
EXTT3=
EXTT4=
EXTT5=
EXTT6=
EXTT7=
EXTT8=
EXTT9=
PLAYORDER=
